<?xml version="1.0" encoding="UTF-8"?>
<svg version="1.1" xmlns="http://www.w3.org/2000/svg" width="512" height="625">
<path d="M0 0 C1.10040619 -0.00525911 1.10040619 -0.00525911 2.22304282 -0.01062447 C4.68260575 -0.01993243 7.14193159 -0.01501674 9.60150433 -0.01015663 C11.38218414 -0.01389319 13.16286232 -0.01849474 14.94353789 -0.02388728 C19.83810494 -0.0361319 24.73260372 -0.03585509 29.6271826 -0.03349853 C34.90542795 -0.03309073 40.18365129 -0.04412592 45.46188641 -0.05361366 C55.80335772 -0.0702325 66.14480623 -0.0757236 76.48628978 -0.07683842 C84.89139397 -0.07778844 93.29649063 -0.08189646 101.70159245 -0.08823967 C125.52636868 -0.10585424 149.35112688 -0.11507817 173.17590968 -0.11357872 C175.10284741 -0.11345885 175.10284741 -0.11345885 177.06871319 -0.11333656 C178.35490497 -0.1132548 179.64109674 -0.11317304 180.96626403 -0.1130888 C201.81438135 -0.11227577 222.66242645 -0.13141725 243.51052288 -0.1596133 C264.9120663 -0.18832971 286.31357448 -0.20215428 307.71513766 -0.20042574 C319.7325665 -0.19976143 331.74991962 -0.20527197 343.76733112 -0.22678185 C353.99860949 -0.24497724 364.22977781 -0.24935443 374.46106533 -0.235763 C379.68141096 -0.22922518 384.90154536 -0.22914563 390.12187099 -0.2464695 C394.90187447 -0.26216905 399.68149869 -0.2593684 404.46149274 -0.24190123 C406.18959297 -0.23882448 407.91772129 -0.24248911 409.64578841 -0.25362138 C426.15664815 -0.35293042 426.15664815 -0.35293042 433.54014874 4.25726891 C434.18902438 4.6355353 434.83790002 5.0138017 435.50643855 5.40353072 C442.42336972 9.58789644 446.37804443 16.64864412 448.54014874 24.25726891 C448.78854573 27.61856782 448.78854573 27.61856782 448.78624439 31.36744308 C448.78855208 32.06322261 448.79085977 32.75900214 448.79323739 33.4758659 C448.79853003 35.80669209 448.78955952 38.13724182 448.78065777 40.46805382 C448.78152999 42.15615136 448.78328127 43.84424863 448.7858361 45.53234446 C448.79031044 50.17066513 448.78230472 54.80889353 448.77227998 59.44720244 C448.76364906 64.44918868 448.76656539 69.45116965 448.76808453 74.45316124 C448.7691336 83.11931531 448.76285461 91.78543927 448.75160885 100.45158577 C448.73535991 112.98140017 448.73014646 125.51120001 448.72763287 138.04102381 C448.72325481 158.36946141 448.70994271 178.69788298 448.69102764 199.02631187 C448.6726717 218.77435793 448.65851379 238.52239963 448.65001202 258.2704525 C448.64948657 259.48757035 448.64896112 260.70468821 448.64841975 261.95868842 C448.64580969 268.06456566 448.64328227 274.17044293 448.64079595 280.27632022 C448.62006001 330.93664764 448.58468287 381.59695724 448.54014874 432.25726891 C453.82014874 432.25726891 459.10014874 432.25726891 464.54014874 432.25726891 C464.54014874 442.81726891 464.54014874 453.37726891 464.54014874 464.25726891 C453.98014874 464.25726891 443.42014874 464.25726891 432.54014874 464.25726891 C432.54014874 480.09726891 432.54014874 495.93726891 432.54014874 512.25726891 C395.58014874 512.25726891 358.62014874 512.25726891 320.54014874 512.25726891 C320.54014874 496.41726891 320.54014874 480.57726891 320.54014874 464.25726891 C246.62014874 464.25726891 172.70014874 464.25726891 96.54014874 464.25726891 C96.54014874 480.09726891 96.54014874 495.93726891 96.54014874 512.25726891 C59.58014874 512.25726891 22.62014874 512.25726891 -15.45985126 512.25726891 C-15.45985126 496.41726891 -15.45985126 480.57726891 -15.45985126 464.25726891 C-26.01985126 464.25726891 -36.57985126 464.25726891 -47.45985126 464.25726891 C-47.45985126 453.69726891 -47.45985126 443.13726891 -47.45985126 432.25726891 C-42.17985126 432.25726891 -36.89985126 432.25726891 -31.45985126 432.25726891 C-31.46538202 429.11562894 -31.46538202 429.11562894 -31.47102451 425.91052151 C-31.55791169 376.20252913 -31.62360539 326.49454325 -31.66411258 276.78649059 C-31.66911546 270.6694094 -31.67429274 264.55232837 -31.67957783 258.43524742 C-31.68115169 256.60853237 -31.68115169 256.60853237 -31.68275735 254.74491399 C-31.70016658 235.02159711 -31.73170715 215.29832683 -31.76846245 195.57503761 C-31.80585741 175.339865 -31.82808407 155.10471681 -31.83620524 134.86951107 C-31.841696 122.38147571 -31.85904343 109.89357206 -31.89151713 97.40557723 C-31.91264715 88.84420566 -31.91905472 80.28290225 -31.91385677 71.72150648 C-31.91129266 66.78067603 -31.91524671 61.84007586 -31.93667316 56.89928627 C-31.95615265 52.37440893 -31.95711215 47.84991652 -31.94344684 43.32502138 C-31.94175815 41.68960187 -31.94682052 40.05415824 -31.95938399 38.41878612 C-32.02034029 29.99306433 -31.98534079 22.63116898 -27.45985126 15.25726891 C-27.08156752 14.6072708 -26.70328377 13.9572727 -26.31353688 13.28757769 C-20.63716287 3.92236464 -10.53108653 0.01136777 0 0 Z " fill="#BF392C" transform="translate(47.45985126495361,-0.25726890563964844)"/>
<path d="M0 0 C0.99516266 -0.00352835 0.99516266 -0.00352835 2.01042962 -0.00712797 C4.2553359 -0.01383679 6.50018454 -0.01335918 8.74510002 -0.01294994 C10.36217204 -0.01624741 11.97924323 -0.01997273 13.59631336 -0.02409142 C18.0571695 -0.03413308 22.51801218 -0.0378317 26.97887802 -0.04048073 C31.78340924 -0.04437744 36.58792975 -0.05395627 41.39245415 -0.0626936 C53.00466175 -0.08247701 64.61687026 -0.09252705 76.22909051 -0.10142139 C81.69419398 -0.10580162 87.15929648 -0.11116915 92.62439919 -0.11641026 C110.78656437 -0.13342517 128.94872894 -0.14791968 147.11090088 -0.155159 C151.8265222 -0.15706897 156.54214351 -0.15898929 161.25776482 -0.16094494 C162.42984694 -0.16142868 163.60192905 -0.16191242 164.80952881 -0.16241082 C183.79944876 -0.17071232 202.78930574 -0.19605011 221.77919818 -0.22852562 C241.26523524 -0.26157851 260.75124028 -0.2796062 280.23730552 -0.28280324 C291.18221557 -0.28497008 302.12703382 -0.29374413 313.07191658 -0.31926441 C322.39276413 -0.34094732 331.7134976 -0.34903374 341.03436752 -0.33929763 C345.79078755 -0.33474581 350.54697209 -0.33669032 355.30335999 -0.35605907 C359.65849542 -0.37364078 364.0132227 -0.37273374 368.36836217 -0.35716178 C369.94313642 -0.35477809 371.51793857 -0.35914866 373.0926701 -0.37099043 C389.89102471 -0.48947769 389.89102471 -0.48947769 394.63862419 4.13422108 C428.38255685 63.18610323 398.63862419 140.12115044 398.63862419 208.13422108 C261.35862419 208.13422108 124.07862419 208.13422108 -17.36137581 208.13422108 C-17.36137581 11.13422108 -17.36137581 11.13422108 -13.36137581 5.13422108 C-8.62719048 0.96362924 -6.26972398 0.00943335 0 0 Z " fill="#FEFEFE" transform="translate(65.36137580871582,47.86577892303467)"/>
<path d="M0 0 C0.8042189 -0.00085602 1.60843781 -0.00171204 2.43702698 -0.00259399 C5.15525489 -0.00425645 7.87342195 0.0012862 10.59164429 0.00672913 C12.5643126 0.00703528 14.53698102 0.00690228 16.50964928 0.00636387 C21.80730982 0.00613748 27.10494792 0.01194645 32.40260315 0.0189743 C37.36804274 0.02465608 42.33347678 0.02493671 47.29891968 0.02565002 C61.83448582 0.03090388 76.37004776 0.04486494 90.90560913 0.05775452 C139.60123413 0.08869202 139.60123413 0.08869202 189.28060913 0.12025452 C189.28060913 68.76025452 189.28060913 137.40025452 189.28060913 208.12025452 C120.64060913 208.12025452 52.00060913 208.12025452 -18.71939087 208.12025452 C-18.80189087 175.73900452 -18.88439087 143.35775452 -18.96939087 109.99525452 C-19.00580688 99.76509338 -19.0422229 89.53493225 -19.07974243 78.99476624 C-19.09780884 66.51698303 -19.09780884 66.51698303 -19.10116577 60.6783905 C-19.1048973 56.59439937 -19.11990656 52.51061553 -19.14169312 48.42668152 C-19.16910819 43.218766 -19.17735953 38.01115238 -19.17167997 32.8031714 C-19.17286778 30.89098556 -19.18081252 28.97878929 -19.19625139 27.06666541 C-19.21613494 24.48428225 -19.21135729 21.90307333 -19.20040894 19.32066345 C-19.21205959 18.57183962 -19.22371025 17.82301579 -19.23571396 17.05150032 C-19.1773554 11.93350256 -17.92277289 9.07120306 -14.71939087 5.12025452 C-9.62980134 0.6365685 -6.63242829 -0.02540261 0 0 Z " fill="#EFEFEF" transform="translate(66.71939086914063,47.87974548339844)"/>
<path d="M0 0 C168.96 0 337.92 0 512 0 C512 10.56 512 21.12 512 32 C501.44 32 490.88 32 480 32 C480 47.84 480 63.68 480 80 C443.04 80 406.08 80 368 80 C368 64.16 368 48.32 368 32 C294.08 32 220.16 32 144 32 C144 47.84 144 63.68 144 80 C107.04 80 70.08 80 32 80 C32 64.16 32 48.32 32 32 C21.44 32 10.88 32 0 32 C0 21.44 0 10.88 0 0 Z " fill="#CCD0D2" transform="translate(0,432)"/>
<path d="M0 0 C31.68 0 63.36 0 96 0 C96 26.4 96 52.8 96 80 C64.32 80 32.64 80 0 80 C0 53.6 0 27.2 0 0 Z " fill="#FFFFFF" transform="translate(368,304)"/>
<path d="M0 0 C31.68 0 63.36 0 96 0 C96 26.4 96 52.8 96 80 C64.32 80 32.64 80 0 80 C0 53.6 0 27.2 0 0 Z " fill="#FFFFFF" transform="translate(48,304)"/>
<path d="M0 0 C36.96 0 73.92 0 112 0 C112 15.84 112 31.68 112 48 C75.04 48 38.08 48 0 48 C0 32.16 0 16.32 0 0 Z " fill="#202D35" transform="translate(368,464)"/>
<path d="M0 0 C36.96 0 73.92 0 112 0 C112 15.84 112 31.68 112 48 C75.04 48 38.08 48 0 48 C0 32.16 0 16.32 0 0 Z " fill="#202D35" transform="translate(32,464)"/>
<path d="M0 0 C21.12 0 42.24 0 64 0 C64 15.84 64 31.68 64 48 C42.88 48 21.76 48 0 48 C0 32.16 0 16.32 0 0 Z " fill="#F5B863" transform="translate(384,320)"/>
<path d="M0 0 C21.12 0 42.24 0 64 0 C64 15.84 64 31.68 64 48 C42.88 48 21.76 48 0 48 C0 32.16 0 16.32 0 0 Z " fill="#F5B863" transform="translate(64,320)"/>
<path d="M0 0 C52.8 0 105.6 0 160 0 C160 5.28 160 10.56 160 16 C107.2 16 54.4 16 0 16 C0 10.72 0 5.44 0 0 Z " fill="#E4E7E7" transform="translate(176,368)"/>
<path d="M0 0 C52.8 0 105.6 0 160 0 C160 5.28 160 10.56 160 16 C107.2 16 54.4 16 0 16 C0 10.72 0 5.44 0 0 Z " fill="#E4E7E7" transform="translate(176,336)"/>
<path d="M0 0 C52.8 0 105.6 0 160 0 C160 5.28 160 10.56 160 16 C107.2 16 54.4 16 0 16 C0 10.72 0 5.44 0 0 Z " fill="#E4E7E7" transform="translate(176,304)"/>
<path d="M0 0 C5.28 0 10.56 0 16 0 C16 15.84 16 31.68 16 48 C10.72 48 5.44 48 0 48 C0 32.16 0 16.32 0 0 Z " fill="#2D4552" transform="translate(464,464)"/>
<path d="M0 0 C5.28 0 10.56 0 16 0 C16 15.84 16 31.68 16 48 C10.72 48 5.44 48 0 48 C0 32.16 0 16.32 0 0 Z " fill="#202D35" transform="translate(448,464)"/>
<path d="M0 0 C5.28 0 10.56 0 16 0 C16 15.84 16 31.68 16 48 C10.72 48 5.44 48 0 48 C0 32.16 0 16.32 0 0 Z " fill="#2D4552" transform="translate(432,464)"/>
<path d="M0 0 C5.28 0 10.56 0 16 0 C16 15.84 16 31.68 16 48 C10.72 48 5.44 48 0 48 C0 32.16 0 16.32 0 0 Z " fill="#203039" transform="translate(416,464)"/>
<path d="M0 0 C5.28 0 10.56 0 16 0 C16 15.84 16 31.68 16 48 C10.72 48 5.44 48 0 48 C0 32.16 0 16.32 0 0 Z " fill="#2D4552" transform="translate(400,464)"/>
<path d="M0 0 C5.28 0 10.56 0 16 0 C16 15.84 16 31.68 16 48 C10.72 48 5.44 48 0 48 C0 32.16 0 16.32 0 0 Z " fill="#2D4552" transform="translate(368,464)"/>
<path d="M0 0 C5.28 0 10.56 0 16 0 C16 15.84 16 31.68 16 48 C10.72 48 5.44 48 0 48 C0 32.16 0 16.32 0 0 Z " fill="#2D4552" transform="translate(128,464)"/>
<path d="M0 0 C5.28 0 10.56 0 16 0 C16 15.84 16 31.68 16 48 C10.72 48 5.44 48 0 48 C0 32.16 0 16.32 0 0 Z " fill="#202D35" transform="translate(112,464)"/>
<path d="M0 0 C5.28 0 10.56 0 16 0 C16 15.84 16 31.68 16 48 C10.72 48 5.44 48 0 48 C0 32.16 0 16.32 0 0 Z " fill="#2D4552" transform="translate(96,464)"/>
<path d="M0 0 C5.28 0 10.56 0 16 0 C16 15.84 16 31.68 16 48 C10.72 48 5.44 48 0 48 C0 32.16 0 16.32 0 0 Z " fill="#203039" transform="translate(80,464)"/>
<path d="M0 0 C5.28 0 10.56 0 16 0 C16 15.84 16 31.68 16 48 C10.72 48 5.44 48 0 48 C0 32.16 0 16.32 0 0 Z " fill="#2D4552" transform="translate(64,464)"/>
<path d="M0 0 C5.28 0 10.56 0 16 0 C16 15.84 16 31.68 16 48 C10.72 48 5.44 48 0 48 C0 32.16 0 16.32 0 0 Z " fill="#2D4552" transform="translate(32,464)"/>
<path d="M0 0 C5.28 0 10.56 0 16 0 C16 5.28 16 10.56 16 16 C10.72 16 5.44 16 0 16 C0 10.72 0 5.44 0 0 Z " fill="#324D5B" transform="translate(464,496)"/>
<path d="M0 0 C5.28 0 10.56 0 16 0 C16 5.28 16 10.56 16 16 C10.72 16 5.44 16 0 16 C0 10.72 0 5.44 0 0 Z " fill="#23343D" transform="translate(448,496)"/>
<path d="M0 0 C5.28 0 10.56 0 16 0 C16 5.28 16 10.56 16 16 C10.72 16 5.44 16 0 16 C0 10.72 0 5.44 0 0 Z " fill="#324D5B" transform="translate(432,496)"/>
<path d="M0 0 C5.28 0 10.56 0 16 0 C16 5.28 16 10.56 16 16 C10.72 16 5.44 16 0 16 C0 10.72 0 5.44 0 0 Z " fill="#324D5B" transform="translate(400,496)"/>
<path d="M0 0 C5.28 0 10.56 0 16 0 C16 5.28 16 10.56 16 16 C10.72 16 5.44 16 0 16 C0 10.72 0 5.44 0 0 Z " fill="#23343D" transform="translate(384,496)"/>
<path d="M0 0 C5.28 0 10.56 0 16 0 C16 5.28 16 10.56 16 16 C10.72 16 5.44 16 0 16 C0 10.72 0 5.44 0 0 Z " fill="#324D5B" transform="translate(368,496)"/>
<path d="M0 0 C5.28 0 10.56 0 16 0 C16 5.28 16 10.56 16 16 C10.72 16 5.44 16 0 16 C0 10.72 0 5.44 0 0 Z " fill="#324D5B" transform="translate(128,496)"/>
<path d="M0 0 C5.28 0 10.56 0 16 0 C16 5.28 16 10.56 16 16 C10.72 16 5.44 16 0 16 C0 10.72 0 5.44 0 0 Z " fill="#23343D" transform="translate(112,496)"/>
<path d="M0 0 C5.28 0 10.56 0 16 0 C16 5.28 16 10.56 16 16 C10.72 16 5.44 16 0 16 C0 10.72 0 5.44 0 0 Z " fill="#324D5B" transform="translate(96,496)"/>
<path d="M0 0 C5.28 0 10.56 0 16 0 C16 5.28 16 10.56 16 16 C10.72 16 5.44 16 0 16 C0 10.72 0 5.44 0 0 Z " fill="#324D5B" transform="translate(64,496)"/>
<path d="M0 0 C5.28 0 10.56 0 16 0 C16 5.28 16 10.56 16 16 C10.72 16 5.44 16 0 16 C0 10.72 0 5.44 0 0 Z " fill="#23343D" transform="translate(48,496)"/>
<path d="M0 0 C5.28 0 10.56 0 16 0 C16 5.28 16 10.56 16 16 C10.72 16 5.44 16 0 16 C0 10.72 0 5.44 0 0 Z " fill="#324D5B" transform="translate(32,496)"/>
</svg>
