<?xml version="1.0" encoding="UTF-8"?>
<svg version="1.1" xmlns="http://www.w3.org/2000/svg" width="128" height="160">
<path d="M0 0 C1.08655884 -0.00700928 2.17311768 -0.01401855 3.29260254 -0.02124023 C6.88803585 -0.03886056 10.48268354 -0.02718245 14.078125 -0.01367188 C16.57389477 -0.01636561 19.06966352 -0.02024703 21.56542969 -0.02526855 C26.79760775 -0.03116908 32.02958108 -0.02296334 37.26171875 -0.00390625 C43.30809512 0.01786244 49.35393196 0.01081088 55.40029526 -0.01121187 C61.22025466 -0.03156034 67.0400092 -0.02939482 72.85998535 -0.01768494 C75.33516515 -0.01501343 77.81035869 -0.01830224 80.28552246 -0.02760315 C83.74280459 -0.03774296 87.19904557 -0.02230206 90.65625 0 C91.68286743 -0.00809692 92.70948486 -0.01619385 93.76721191 -0.02453613 C97.67296358 0.02222534 100.49101919 0.07111266 103.96673584 1.92486572 C106.12278863 6.03098392 105.85080185 9.94994257 105.78222656 14.51855469 C105.78281067 15.53351013 105.78339478 16.54846558 105.78399658 17.59417725 C105.7812097 20.94920034 105.75008813 24.30333521 105.71875 27.65820312 C105.71128979 29.98418696 105.70559582 32.31017707 105.70159912 34.63616943 C105.68632565 40.75851796 105.64702853 46.88048698 105.6027832 53.00268555 C105.56186776 59.24978501 105.54359604 65.49694579 105.5234375 71.74414062 C105.48053638 84.00211987 105.41226391 96.25981744 105.328125 108.51757812 C106.648125 108.51757812 107.968125 108.51757812 109.328125 108.51757812 C109.328125 111.15757813 109.328125 113.79757813 109.328125 116.51757812 C106.688125 116.51757812 104.048125 116.51757812 101.328125 116.51757812 C101.328125 120.47757812 101.328125 124.43757813 101.328125 128.51757812 C92.088125 128.51757812 82.848125 128.51757812 73.328125 128.51757812 C73.328125 124.55757813 73.328125 120.59757812 73.328125 116.51757812 C54.848125 116.51757812 36.368125 116.51757812 17.328125 116.51757812 C17.328125 120.47757812 17.328125 124.43757813 17.328125 128.51757812 C8.088125 128.51757812 -1.151875 128.51757812 -10.671875 128.51757812 C-10.671875 124.55757813 -10.671875 120.59757812 -10.671875 116.51757812 C-13.311875 116.51757812 -15.951875 116.51757812 -18.671875 116.51757812 C-18.671875 113.87757812 -18.671875 111.23757812 -18.671875 108.51757812 C-17.351875 108.51757812 -16.031875 108.51757812 -14.671875 108.51757812 C-14.68075745 107.22354065 -14.68963989 105.92950317 -14.6987915 104.59625244 C-14.77981086 92.41257891 -14.83980856 80.22895989 -14.87912369 68.04507828 C-14.90001537 61.78091471 -14.9283624 55.51696828 -14.97363281 49.25292969 C-15.01703336 43.20993663 -15.04100019 37.16715267 -15.05138397 31.12401581 C-15.05878569 28.81626848 -15.07323918 26.50853285 -15.09479523 24.20087433 C-15.12375149 20.97318111 -15.12783416 17.74635649 -15.12597656 14.51855469 C-15.14035767 13.56045898 -15.15473877 12.60236328 -15.16955566 11.61523438 C-15.14623001 7.87979773 -15.06176328 5.2601051 -13.31048584 1.92486572 C-9.02355248 -0.36154501 -4.78315162 -0.03772468 0 0 Z " fill="#BF392C" transform="translate(18.671875,-0.517578125)"/>
<path d="M0 0 C0.84127441 -0.00563965 1.68254883 -0.0112793 2.54931641 -0.01708984 C3.93642822 -0.01101715 3.93642822 -0.01101715 5.3515625 -0.00482178 C6.32399902 -0.00832642 7.29643555 -0.01183105 8.29833984 -0.01544189 C11.5244859 -0.02427073 14.75041407 -0.01840596 17.9765625 -0.01165771 C20.21093793 -0.01300403 22.44531308 -0.01494428 24.6796875 -0.01745605 C29.36721581 -0.02040888 34.05466802 -0.01610455 38.7421875 -0.0067749 C44.76178038 0.00461968 50.78119492 -0.00193894 56.80078125 -0.01391983 C61.41602938 -0.02113413 66.03123499 -0.01885248 70.64648438 -0.01366425 C72.86653667 -0.01232656 75.08659278 -0.0139796 77.30664062 -0.01862335 C80.40505254 -0.0236815 83.50317243 -0.0159883 86.6015625 -0.00482178 C87.52630371 -0.00887024 88.45104492 -0.0129187 89.40380859 -0.01708984 C90.66572021 -0.00863037 90.66572021 -0.00863037 91.953125 0 C92.68611816 0.00075405 93.41911133 0.0015081 94.17431641 0.002285 C95.9765625 0.25396729 95.9765625 0.25396729 97.9765625 2.25396729 C97.9765625 18.75396729 97.9765625 35.25396729 97.9765625 52.25396729 C63.6565625 52.25396729 29.3365625 52.25396729 -6.0234375 52.25396729 C-6.0234375 0.00619648 -6.0234375 0.00619648 0 0 Z " fill="#FEFEFE" transform="translate(18.0234375,11.74603271484375)"/>
<path d="M0 0 C1.32570511 0.00666183 1.32570511 0.00666183 2.67819214 0.01345825 C3.69308716 0.01369995 4.70798218 0.01394165 5.75363159 0.01419067 C7.35766846 0.02953857 7.35766846 0.02953857 8.99411011 0.04519653 C10.4654541 0.04821777 10.4654541 0.04821777 11.96652222 0.05130005 C15.63982807 0.06178468 19.31306741 0.08970714 22.98629761 0.11550903 C35.29942261 0.17738403 35.29942261 0.17738403 47.86129761 0.24050903 C47.86129761 17.40050903 47.86129761 34.56050903 47.86129761 52.24050903 C30.70129761 52.24050903 13.54129761 52.24050903 -4.13870239 52.24050903 C-4.17995239 44.03175903 -4.22120239 35.82300903 -4.26370239 27.36550903 C-4.2819104 24.77336548 -4.30011841 22.18122192 -4.31887817 19.51052856 C-4.32471727 17.464795 -4.3298142 15.41905912 -4.33401489 13.37332153 C-4.34936279 11.76928467 -4.34936279 11.76928467 -4.36502075 10.13284302 C-4.36526245 9.117948 -4.36550415 8.10305298 -4.36575317 7.05740356 C-4.3701944 6.17360016 -4.37463562 5.28979675 -4.37921143 4.37921143 C-4.03666586 1.33315942 -3.04605201 0.34254557 0 0 Z " fill="#EFEFEF" transform="translate(16.138702392578125,11.759490966796875)"/>
<path d="M0 0 C42.24 0 84.48 0 128 0 C128 2.64 128 5.28 128 8 C125.36 8 122.72 8 120 8 C120 11.96 120 15.92 120 20 C110.76 20 101.52 20 92 20 C92 16.04 92 12.08 92 8 C73.52 8 55.04 8 36 8 C36 11.96 36 15.92 36 20 C26.76 20 17.52 20 8 20 C8 16.04 8 12.08 8 8 C5.36 8 2.72 8 0 8 C0 5.36 0 2.72 0 0 Z " fill="#CCD0D2" transform="translate(0,108)"/>
<path d="M0 0 C7.92 0 15.84 0 24 0 C24 6.6 24 13.2 24 20 C16.08 20 8.16 20 0 20 C0 13.4 0 6.8 0 0 Z " fill="#FFFFFF" transform="translate(92,76)"/>
<path d="M0 0 C7.92 0 15.84 0 24 0 C24 6.6 24 13.2 24 20 C16.08 20 8.16 20 0 20 C0 13.4 0 6.8 0 0 Z " fill="#FFFFFF" transform="translate(12,76)"/>
<path d="M0 0 C9.24 0 18.48 0 28 0 C28 3.96 28 7.92 28 12 C18.76 12 9.52 12 0 12 C0 8.04 0 4.08 0 0 Z " fill="#212F37" transform="translate(92,116)"/>
<path d="M0 0 C9.24 0 18.48 0 28 0 C28 3.96 28 7.92 28 12 C18.76 12 9.52 12 0 12 C0 8.04 0 4.08 0 0 Z " fill="#212F37" transform="translate(8,116)"/>
<path d="M0 0 C5.28 0 10.56 0 16 0 C16 3.96 16 7.92 16 12 C10.72 12 5.44 12 0 12 C0 8.04 0 4.08 0 0 Z " fill="#F5B863" transform="translate(96,80)"/>
<path d="M0 0 C5.28 0 10.56 0 16 0 C16 3.96 16 7.92 16 12 C10.72 12 5.44 12 0 12 C0 8.04 0 4.08 0 0 Z " fill="#F5B863" transform="translate(16,80)"/>
<path d="M0 0 C13.2 0 26.4 0 40 0 C40 1.32 40 2.64 40 4 C26.8 4 13.6 4 0 4 C0 2.68 0 1.36 0 0 Z " fill="#E4E7E7" transform="translate(44,92)"/>
<path d="M0 0 C13.2 0 26.4 0 40 0 C40 1.32 40 2.64 40 4 C26.8 4 13.6 4 0 4 C0 2.68 0 1.36 0 0 Z " fill="#E4E7E7" transform="translate(44,84)"/>
<path d="M0 0 C13.2 0 26.4 0 40 0 C40 1.32 40 2.64 40 4 C26.8 4 13.6 4 0 4 C0 2.68 0 1.36 0 0 Z " fill="#E4E7E7" transform="translate(44,76)"/>
<path d="M0 0 C1.32 0 2.64 0 4 0 C4 3.96 4 7.92 4 12 C2.68 12 1.36 12 0 12 C0 8.04 0 4.08 0 0 Z " fill="#2E4755" transform="translate(116,116)"/>
<path d="M0 0 C1.32 0 2.64 0 4 0 C4 3.96 4 7.92 4 12 C2.68 12 1.36 12 0 12 C0 8.04 0 4.08 0 0 Z " fill="#212F37" transform="translate(112,116)"/>
<path d="M0 0 C1.32 0 2.64 0 4 0 C4 3.96 4 7.92 4 12 C2.68 12 1.36 12 0 12 C0 8.04 0 4.08 0 0 Z " fill="#2E4755" transform="translate(108,116)"/>
<path d="M0 0 C1.32 0 2.64 0 4 0 C4 3.96 4 7.92 4 12 C2.68 12 1.36 12 0 12 C0 8.04 0 4.08 0 0 Z " fill="#203039" transform="translate(104,116)"/>
<path d="M0 0 C1.32 0 2.64 0 4 0 C4 3.96 4 7.92 4 12 C2.68 12 1.36 12 0 12 C0 8.04 0 4.08 0 0 Z " fill="#2E4755" transform="translate(100,116)"/>
<path d="M0 0 C1.32 0 2.64 0 4 0 C4 3.96 4 7.92 4 12 C2.68 12 1.36 12 0 12 C0 8.04 0 4.08 0 0 Z " fill="#2E4755" transform="translate(92,116)"/>
<path d="M0 0 C1.32 0 2.64 0 4 0 C4 3.96 4 7.92 4 12 C2.68 12 1.36 12 0 12 C0 8.04 0 4.08 0 0 Z " fill="#2E4755" transform="translate(32,116)"/>
<path d="M0 0 C1.32 0 2.64 0 4 0 C4 3.96 4 7.92 4 12 C2.68 12 1.36 12 0 12 C0 8.04 0 4.08 0 0 Z " fill="#212F37" transform="translate(28,116)"/>
<path d="M0 0 C1.32 0 2.64 0 4 0 C4 3.96 4 7.92 4 12 C2.68 12 1.36 12 0 12 C0 8.04 0 4.08 0 0 Z " fill="#2E4755" transform="translate(24,116)"/>
<path d="M0 0 C1.32 0 2.64 0 4 0 C4 3.96 4 7.92 4 12 C2.68 12 1.36 12 0 12 C0 8.04 0 4.08 0 0 Z " fill="#203039" transform="translate(20,116)"/>
<path d="M0 0 C1.32 0 2.64 0 4 0 C4 3.96 4 7.92 4 12 C2.68 12 1.36 12 0 12 C0 8.04 0 4.08 0 0 Z " fill="#2E4755" transform="translate(16,116)"/>
<path d="M0 0 C1.32 0 2.64 0 4 0 C4 3.96 4 7.92 4 12 C2.68 12 1.36 12 0 12 C0 8.04 0 4.08 0 0 Z " fill="#2E4755" transform="translate(8,116)"/>
</svg>
